
        <svg xmlns="http://www.w3.org/2000/svg" xmlns:xlink="http://www.w3.org/1999/xlink" version="1.1" width="3162.1621621621625" 
        height="740.0630603278416" viewBox="0 0 3162.1621621621625 740.0630603278416">
			
			<g transform="scale(8.108108108108109) translate(10, 10)">
				<defs id="SvgjsDefs2354"></defs><g id="SvgjsG2355" featureKey="symbolFeature-0" transform="matrix(0.9202610099597384,0,0,0.9202610099597384,-11.012763513209224,-10.37663323049524)" fill="#3a4b8c"><g xmlns="http://www.w3.org/2000/svg"><g><path d="M85.351,13.957c-3.575-3.575-9.371-3.575-12.946,0c-3.204,3.204-3.534,8.19-0.996,11.764L60.537,36.592    c-1.924-1.338-4.259-2.123-6.775-2.123c-2.725,0-5.239,0.922-7.247,2.469l-7.636-7.636c1.604-2.71,1.242-6.261-1.087-8.59    c-2.759-2.759-7.231-2.758-9.989,0c-2.759,2.758-2.759,7.231,0,9.989c2.336,2.336,5.901,2.693,8.614,1.072l7.673,7.673    c-1.139,1.587-1.896,3.465-2.139,5.499H30.122c-0.785-4.259-4.515-7.486-9-7.485c-5.056,0-9.155,4.099-9.155,9.155    c0,5.056,4.098,9.155,9.155,9.155c4.433,0,8.129-3.151,8.973-7.334h11.951c0.886,5.031,4.944,8.981,10.027,9.707v12.42    c-4.28,0.768-7.528,4.507-7.528,9.008c0,5.056,4.099,9.155,9.155,9.155c5.056,0,9.155-4.099,9.155-9.155    c0-4.418-3.129-8.104-7.292-8.964V58.126c5.709-0.87,10.097-5.813,10.097-11.761c0-2.788-0.964-5.354-2.576-7.384l10.848-10.848    c3.545,2.281,8.318,1.873,11.42-1.229C88.926,23.329,88.926,17.532,85.351,13.957z M53.762,54.661    c-4.574,0-8.295-3.721-8.295-8.295c0-4.574,3.721-8.295,8.295-8.295s8.295,3.721,8.295,8.295    C62.057,50.94,58.336,54.661,53.762,54.661z"></path></g></g></g><g id="SvgjsG2356" featureKey="nameFeature-0" transform="matrix(0.8696731919833827,0,0,0.8696731919833827,89.3042612805363,13.851039280999995)" fill="#000000"><path d="M13.6 13.719999999999999 l0 26.28 l-3.04 0 l0 -26.28 l-9.76 0 l0 -2.88 l22.56 0 l0 2.88 l-9.76 0 z M49.68 40 l-3.2 -7.44 l-15.88 0 l-3.2 7.44 l-3.12 0 l12.56 -29.16 l3.48 0 l12.6 29.16 l-3.24 0 z M45.32 29.759999999999998 l-6.8 -15.76 l-6.76 15.76 l13.56 0 z M65.16 40.28 c-2.76 0 -5.4 -1.04 -7.12 -2.56 c-1.8 -1.56 -2.96 -3.64 -3.2 -5.68 l2.88 -0.8 c0.32 1.72 1.2 3.16 2.64 4.36 c1.4 1.2 3 1.8 4.8 1.8 c1.68 0 3.24 -0.4 4.48 -1.28 c1.24 -0.84 2.04 -2.28 2.04 -4.04 c0 -2.04 -1.08 -3.36 -2.44 -4.16 c-0.96 -0.56 -1.8 -0.8 -2.76 -1 l-3.84 -0.76 c-0.8 -0.16 -1.64 -0.44 -2.56 -0.84 c-0.92 -0.44 -1.72 -0.96 -2.4 -1.64 c-1.36 -1.32 -2.04 -3 -2.04 -5.04 c0 -1.6 0.44 -3.04 1.32 -4.28 c0.88 -1.28 2 -2.2 3.4 -2.88 c1.4 -0.64 2.88 -0.96 4.52 -0.96 c6.28 0 9.04 3.88 9.64 7 l-2.8 0.88 c-0.48 -2.08 -2.36 -5.04 -6.88 -5.04 c-3.12 -0.08 -6.16 2.12 -6.12 5.16 c0 2.24 1.4 4.04 4.24 4.6 l3.68 0.72 c2.48 0.48 4.4 1.32 5.68 2.56 c0.88 0.8 1.52 1.72 1.92 2.68 c0.4 1 0.6 1.88 0.6 2.68 c0.04 5.12 -4.28 8.64 -9.68 8.52 z M84.04 40 l-3.08 0 l0 -29.16 l3.08 0 l0 12.88 l0.2 0 l13.08 -12.88 l4.24 0 l-14.28 13.96 l14.96 15.2 l-4.32 0 l-13.68 -14.04 l-0.2 0 l0 14.04 z M142.60000000000002 10.84 l4.4 0 l0 29.16 l-3.04 0 l0 -25 l0 0 l-10.84 25 l-2.76 0 l-10.76 -24.8 l0 0 l0 24.8 l-3.04 0 l0 -29.16 l4.36 0 l10.88 25 z M176.60000000000002 40 l-3.2 -7.44 l-15.88 0 l-3.2 7.44 l-3.12 0 l12.56 -29.16 l3.48 0 l12.6 29.16 l-3.24 0 z M172.24 29.759999999999998 l-6.8 -15.76 l-6.76 15.76 l13.56 0 z M204.76000000000002 10.84 l3 0 l0 29.16 l-3.32 0 l-17.4 -24.8 l0 24.8 l-3.04 0 l0 -29.16 l3.56 0 l17.2 24.52 l0 -24.52 z M237.36 40 l-3.2 -7.44 l-15.88 0 l-3.2 7.44 l-3.12 0 l12.56 -29.16 l3.48 0 l12.6 29.16 l-3.24 0 z M233 29.759999999999998 l-6.8 -15.76 l-6.76 15.76 l13.56 0 z M270.28 19.2 l-2.92 1.04 c-0.36 -1.04 -0.84 -2.12 -2 -3.44 c-0.56 -0.6 -1.2 -1.2 -1.92 -1.68 c-1.44 -1 -3.68 -1.72 -6.12 -1.72 c-2.2 0 -4.16 0.52 -5.92 1.64 s-3.12 2.56 -4.08 4.4 c-0.96 1.8 -1.44 3.76 -1.44 5.92 c0 3.28 1.12 6.32 3.04 8.52 c1.96 2.2 5 3.56 8.44 3.56 c2.6 0 5.08 -0.84 6.96 -2.28 s3.16 -3.76 3.32 -6.44 l-12.16 0 l0 -2.84 l15.44 0 l0 1.12 c0 3.68 -1.32 7 -3.6 9.4 c-2.32 2.4 -5.88 3.88 -10 3.88 c-4.36 0 -8.16 -1.6 -10.64 -4.24 s-3.96 -6.4 -3.96 -10.52 c0 -2.76 0.64 -5.32 1.92 -7.6 s3.04 -4.08 5.28 -5.4 s4.76 -1.96 7.48 -1.96 c3.44 0 6.48 0.96 8.56 2.64 c2.12 1.64 3.52 3.64 4.32 6 z M276.68 40 l0 -29.16 l18.24 0 l0 2.84 l-15.16 0 l0 10.08 l13.88 0 l0 2.84 l-13.88 0 l0 10.56 l15.32 0 l0 2.84 l-18.4 0 z M322.76 40 l-3.72 0 l-8.64 -11.8 l-5.92 0 l0 11.8 l-3.08 0 l0 -29.16 l10.12 0 c3.44 0 6.2 0.96 7.8 2.56 s2.44 3.6 2.44 5.96 c0 4.92 -3.68 7.76 -8 8.32 z M304.48 13.719999999999999 l0 11.68 l6.76 0 c2.56 0 4.56 -0.72 5.72 -1.88 c1.12 -1.12 1.68 -2.52 1.68 -4.08 c0 -2.88 -1.76 -5.72 -7.32 -5.72 l-6.84 0 z"></path></g>
			</g>
		</svg>
	